<svg xmlns="http://www.w3.org/2000/svg" viewBox="0 0 480 220" width="480" height="220" style="font-family:monospace;font-size:11px">
  <rect width="480" height="220" fill="#0d1117"/>
  <text x="240" y="14" fill="#c9d1d9" text-anchor="middle" font-size="13">PRs merged</text>
  <line x1="40" y1="40" x2="40" y2="190" stroke="#30363d" stroke-width="1"/>
  <line x1="40" y1="190" x2="460" y2="190" stroke="#30363d" stroke-width="1"/>
  <line x1="36" y1="190.0" x2="40" y2="190.0" stroke="#30363d" stroke-width="1"/>
  <text x="34" y="194.0" fill="#8b949e" text-anchor="end">0</text>
  <line x1="36" y1="160.0" x2="40" y2="160.0" stroke="#30363d" stroke-width="1"/>
  <text x="34" y="164.0" fill="#8b949e" text-anchor="end">4</text>
  <line x1="36" y1="130.0" x2="40" y2="130.0" stroke="#30363d" stroke-width="1"/>
  <text x="34" y="134.0" fill="#8b949e" text-anchor="end">8</text>
  <line x1="36" y1="100.0" x2="40" y2="100.0" stroke="#30363d" stroke-width="1"/>
  <text x="34" y="104.0" fill="#8b949e" text-anchor="end">12</text>
  <line x1="36" y1="70.0" x2="40" y2="70.0" stroke="#30363d" stroke-width="1"/>
  <text x="34" y="74.0" fill="#8b949e" text-anchor="end">16</text>
  <line x1="36" y1="40.0" x2="40" y2="40.0" stroke="#30363d" stroke-width="1"/>
  <text x="34" y="44.0" fill="#8b949e" text-anchor="end">20</text>
  <text x="40.0" y="206" fill="#8b949e" text-anchor="middle">05-09</text>
  <text x="180.0" y="206" fill="#8b949e" text-anchor="middle">05-10</text>
  <text x="320.0" y="206" fill="#8b949e" text-anchor="middle">05-11</text>
  <text x="460.0" y="206" fill="#8b949e" text-anchor="middle">05-12</text>
  <polyline points="40.0,182.5 180.0,145.0 320.0,85.0 460.0,55.0" fill="none" stroke="#58a6ff" stroke-width="3" stroke-linejoin="round" stroke-linecap="round"/>
  <circle cx="40.0" cy="182.5" r="4" fill="#58a6ff"/>
  <text x="40.0" y="174.5" fill="#c9d1d9" text-anchor="middle">1</text>
  <circle cx="180.0" cy="145.0" r="4" fill="#58a6ff"/>
  <text x="180.0" y="137.0" fill="#c9d1d9" text-anchor="middle">6</text>
  <circle cx="320.0" cy="85.0" r="4" fill="#58a6ff"/>
  <text x="320.0" y="77.0" fill="#c9d1d9" text-anchor="middle">14</text>
  <circle cx="460.0" cy="55.0" r="4" fill="#58a6ff"/>
  <text x="460.0" y="47.0" fill="#c9d1d9" text-anchor="middle">18</text>
</svg>