<svg xmlns="http://www.w3.org/2000/svg" viewBox="0 0 480 200" width="480" height="200" style="font-family:monospace;font-size:11px">
  <rect width="480" height="200" fill="#0d1117"/>
  <line x1="40" y1="20" x2="40" y2="170" stroke="#30363d" stroke-width="1"/>
  <line x1="40" y1="170" x2="460" y2="170" stroke="#30363d" stroke-width="1"/>
  <line x1="36" y1="170.0" x2="40" y2="170.0" stroke="#30363d" stroke-width="1"/>
  <text x="34" y="174.0" fill="#8b949e" text-anchor="end">0</text>
  <line x1="36" y1="140.0" x2="40" y2="140.0" stroke="#30363d" stroke-width="1"/>
  <text x="34" y="144.0" fill="#8b949e" text-anchor="end">4</text>
  <line x1="36" y1="110.0" x2="40" y2="110.0" stroke="#30363d" stroke-width="1"/>
  <text x="34" y="114.0" fill="#8b949e" text-anchor="end">8</text>
  <line x1="36" y1="80.0" x2="40" y2="80.0" stroke="#30363d" stroke-width="1"/>
  <text x="34" y="84.0" fill="#8b949e" text-anchor="end">12</text>
  <line x1="36" y1="50.0" x2="40" y2="50.0" stroke="#30363d" stroke-width="1"/>
  <text x="34" y="54.0" fill="#8b949e" text-anchor="end">16</text>
  <line x1="36" y1="20.0" x2="40" y2="20.0" stroke="#30363d" stroke-width="1"/>
  <text x="34" y="24.0" fill="#8b949e" text-anchor="end">20</text>
  <text x="40.0" y="186" fill="#8b949e" text-anchor="middle">05-09</text>
  <text x="180.0" y="186" fill="#8b949e" text-anchor="middle">05-10</text>
  <text x="320.0" y="186" fill="#8b949e" text-anchor="middle">05-11</text>
  <text x="460.0" y="186" fill="#8b949e" text-anchor="middle">05-12</text>
  <polyline points="40.0,162.5 180.0,125.0 320.0,65.0 460.0,35.0" fill="none" stroke="#58a6ff" stroke-width="3" stroke-linejoin="round" stroke-linecap="round"/>
  <circle cx="40.0" cy="162.5" r="4" fill="#58a6ff"/>
  <text x="40.0" y="154.5" fill="#c9d1d9" text-anchor="middle">1</text>
  <circle cx="180.0" cy="125.0" r="4" fill="#58a6ff"/>
  <text x="180.0" y="117.0" fill="#c9d1d9" text-anchor="middle">6</text>
  <circle cx="320.0" cy="65.0" r="4" fill="#58a6ff"/>
  <text x="320.0" y="57.0" fill="#c9d1d9" text-anchor="middle">14</text>
  <circle cx="460.0" cy="35.0" r="4" fill="#58a6ff"/>
  <text x="460.0" y="27.0" fill="#c9d1d9" text-anchor="middle">18</text>
</svg>